{"title":"For Love of Ivy 1968 Dvdrip Xvid-OlFa","uid":10594348,"size":1481360310,"categoryP":"video","categoryS":"movies","magnet":"?xt=urn:btih:b54cb09d635eb53870f6efd3c00e556c03b8bbea&amp;dn=For+Love+of+Ivy+1968+Dvdrip+Xvid-OlFa&amp;tr=udp%3A%2F%2Ftracker.openbittorrent.com%3A80&amp;tr=udp%3A%2F%2Fopen.demonii.com%3A1337&amp;tr=udp%3A%2F%2Ftracker.coppersurfer.tk%3A6969&amp;tr=udp%3A%2F%2Fexodus.desync.com%3A6969","seeders":1,"leechers":0,"uploader":null,"files":3,"time":1405847681,"description":"For For Love of Ivy 1968 Dvdrip Xvid-OlFa\n\nFor Love of Ivy 1968 Dvdrip Xvid-OlFa\n\nGenre: Comedy | Drama | Romance  -  17 July 1968 (USA)\nIMDB: http://www.imdb.com/title/tt0062985/\nRatings: 6.2/10 from 444 users  \n\nPlot: A white family has had the same black maid for many years. When she tells \nthem she wants to go back to school and will be leaving soon, the 20ish year \nold son decides what she needs is a change and begins searching for a man to wine\nher, dine her, but who won't marry her thinking that this will turn her aside from \nher plans. The man he finds doesn't entirely cooperate. \n\nDirector: Daniel Mann\nWriters: Robert Alan Aurthur (screenplay), Sidney Poitier (original story)\nStars: Sidney Poitier, Abbey Lincoln, Beau Bridges, Carroll O'Connor, Nan Martin\n\nVideo: 720x400 Xvid @1800kbps\nAudio: English MP3 @128kbps\nSubtitles: English, Spanish, French in .idx/.sub files\n\nSource: retail NTSC DVD\nFormat                                   : AVI\nFormat/Info                              : Audio Video Interleave\nFile size                                : 1.37 GiB\nDuration                                 : 1h 40mn\nOverall bit rate                         : 1 939 Kbps\nWriting application                      : VirtualDubMod 1.5.4.1 (build 2178/release)\nWriting library                          : VirtualDubMod build 2178/release\n\nVideo\nID                                       : 0\nFormat                                   : MPEG-4 Visual\nFormat profile                           : Simple@L3\nFormat settings, BVOP                    : No\nFormat settings, QPel                    : No\nFormat settings, GMC                     : No warppoints\nFormat settings, Matrix                  : Default (H.263)\nCodec ID                                 : XVID\nCodec ID/Hint                            : XviD\nDuration                                 : 1h 40mn\nBit rate                                 : 1 804 Kbps\nWidth                                    : 720 pixels\nHeight                                   : 400 pixels\nDisplay aspect ratio                     : 16:9\nFrame rate                               : 23.976 fps\nColor space                              : YUV\nChroma subsampling                       : 4:2:0\nBit depth                                : 8 bits\nScan type                                : Progressive\nCompression mode                         : Lossy\nBits/(Pixel*Frame)                       : 0.261\nStream size                              : 1.27 GiB (93%)\nWriting library                          : XviD 1.2.1 (UTC 2008-12-04)\n\nAudio\nID                                       : 1\nFormat                                   : MPEG Audio\nFormat version                           : Version 1\nFormat profile                           : Layer 3\nMode                                     : Joint stereo\nMode extension                           : MS Stereo\nCodec ID                                 : 55\nCodec ID/Hint                            : MP3\nDuration                                 : 1h 40mn\nBit rate mode                            : Constant\nBit rate                                 : 128 Kbps\nChannel(s)                               : 2 channels\nSampling rate                            : 48.0 KHz\nCompression mode                         : Lossy\nStream size                              : 92.4 MiB (7%)\nAlignment                                : Aligned on interleaves\nInterleave, duration                     : 83 ms (2.00 video frames)\nInterleave, preload duration             : 504 ms\nWriting library                          : LAME3.98r\n\n","torrent":{"xt":"urn:btih:b54cb09d635eb53870f6efd3c00e556c03b8bbea","amp;dn":"For+Love+of+Ivy+1968+Dvdrip+Xvid-OlFa","amp;tr":["udp%3A%2F%2Ftracker.openbittorrent.com%3A80","udp%3A%2F%2Fopen.demonii.com%3A1337","udp%3A%2F%2Ftracker.coppersurfer.tk%3A6969","udp%3A%2F%2Fexodus.desync.com%3A6969"],"infoHash":"b54cb09d635eb53870f6efd3c00e556c03b8bbea","infoHashBuffer":{"type":"Buffer","data":[181,76,176,157,99,94,181,56,112,246,239,211,192,14,85,108,3,184,187,234]},"announce":[],"urlList":[]}}